<?xml version="1.0" standalone="no"?>
<svg xmlns="http://www.w3.org/2000/svg" viewBox="0 0 82.404 36" width="82.404" height="36"><g fill="#ffffff" color="#ffffff" transform="translate(0 6) scale(0.4615385)"><svg width="44.0" height="52.0" x="0.0" y="0.0" viewBox="0 0 44 52"><path fill="currentColor" fill-rule="evenodd" d="M28.965 20.66c-.215.472-.215.343-.644.515-.43.172-.903.13-1.075-.172a.82.82 0 0 1 .258-1.031c.301-.258.817-.215 1.203-.086.387.129.258.774.258.774m-13.924-.774c.43-.129.903-.172 1.204.086.3.258.43.73.257 1.031-.171.344-.644.344-1.074.172-.43-.172-.473-.043-.688-.515.043 0-.085-.645.301-.774m21.015 5.802c-.387.258-.129.73.086 1.804.172 1.075-.387 1.462-.73 1.934-.344.473-.387-.171-.774-.171-.344-.044-.043.945-.086 1.59-.043.644-.516.258-.86.215-.343-.043-.214.214-.343.816-.13.602-.13.215-.516.558-.387.345-.129.645-.129 1.29-.043.688-.043.73-.129 1.933-.043 1.204-.558 1.505-.644 2.15-.086.644-.602 1.203-.86.859-.258-.344-.3-1.16-.387-1.805-.129-.644-.386.989-.515 1.547-.13.559-.645.172-.645-.129 0-.343-.3.258-.473.645-.172.386-.472.3-.558-.086-.043-.387-.43.129-.602.3-.172.172-.387.56-.73.56-.344 0-.173.601-.344 1.031-.13.43-.301.258-.645.129-.344-.172-.215.344-.387.86-.172.558-.687.43-.902.17-.215-.257-.258 1.075-.43 1.677-.172.559-.387-.086-.989 1.117-.558 1.204-.472 1.419-.816 2.622-.215.645-.559.86-.86.946-.3-.086-.687-.301-.86-.946-.343-1.203-.257-1.418-.816-2.622-.558-1.203-.816-.558-.988-1.117-.172-.558-.215-1.891-.43-1.676-.215.258-.73.344-.902-.172-.172-.558-.043-1.031-.387-.86-.344.172-.473.345-.645-.128-.129-.43.043-1.031-.343-1.031-.344 0-.56-.388-.731-.56-.172-.171-.559-.687-.602-.3-.043.387-.386.472-.558.086-.172-.387-.473-.988-.473-.645 0 .344-.473.688-.645.13-.129-.56-.387-2.192-.515-1.548-.13.645-.172 1.418-.387 1.805-.258.344-.774-.215-.86-.86-.086-.644-.601-.902-.644-2.149-.043-1.202-.086-1.289-.13-1.933-.042-.688.259-.988-.128-1.29-.387-.343-.387.044-.516-.558-.129-.602 0-.86-.344-.816-.344.043-.816.43-.86-.215-.042-.645.259-1.634-.085-1.59-.344.043-.387.687-.774.171-.344-.472-.902-.902-.73-1.934.172-1.074.472-1.546.086-1.804-.387-.258-.86-.559-.559-1.118.3-.558-.172-1.074.602-1.89.773-.817.773-.645.644-1.806-.129-1.16-.43-1.074-.043-1.719.387-.644.258-.386.473-1.074.172-.688.774-.902.817-.129 0 0 .171 1.375.085 2.235-.128.86-.128.644.215 1.203.344.559.301.172.516 1.29.215 1.117.688.43 1.203 1.375.516.902.172.816.903 1.203.73.387.988-.086 1.59.86.602.944.645.343.73 1.504.086.687.086 1.074.172 1.289.086-.215.215-.473.387-.73 1.16-1.72 1.762-2.193 1.633-3.009-.129-.86.043-.988-.773-1.203-.817-.258-.688-.774-1.247-.473-.558.258-.601.3-.816.258 0 0 .172-.473-.258-.516-.43-.043-.86-.344-.559-.516.258-.172-.257-.816-.687-.988-.43-.172-.774-.903-.645-1.332.13-.43.301-.774.774-.387.472.344.988-.129 1.332.645.344.773.688 1.074 1.547 1.203.387.043.645 0 .86 0 .257-.043.43-.086.644 0 .344.172.645.86.774.387s.043-.688-.13-.903c-.171-.258-.558-.344-.3-.86.258-.472.215-.859-.387-1.46-.601-.645-1.246-1.376-1.805-1.118-.558.258-.473.73-1.289.774-.774.043-1.89.386-2.106-.473 0 0 0-1.332.73-1.29.731.044.903.387 1.29-.171.387-.559 1.461-1.805 2.836-1.29 1.376.56 2.536 2.106 2.536 3.18.043 1.075.215 1.763.258 2.235.043.473.344.989-.344 2.235-.645 1.246-.387 1.461-.387 2.235 0 .773-.172 1.89-.387 3.094-.214 1.203-.086.688.688.946.774.257 1.074-.043 1.633-.086.387 0 .774-.087.989-.13.214.043.558.087.988.13.559.043.86.343 1.633.086.774-.258.902.257.688-.946-.215-1.203-.387-2.32-.387-3.094s.258-.989-.387-2.235-.387-1.805-.344-2.235c.043-.472.258-1.16.258-2.234.043-1.075 1.16-2.622 2.536-3.18 1.375-.56 2.45.687 2.836 1.289.387.558.559.172 1.29.172.73-.043.73 1.289.73 1.289-.215.902-1.29.516-2.106.473-.774-.043-.73-.516-1.29-.774-.558-.258-1.16.473-1.804 1.117-.645.645-.688.989-.387 1.462.258.472-.129.601-.3.86-.173.257-.259.472-.13.902.13.472.43-.215.774-.387.172-.086.387-.043.644 0 .215.043.516.086.86 0 .86-.13 1.203-.43 1.547-1.203.344-.774.86-.258 1.332-.645.473-.344.688-.043.774.387.129.43-.215 1.16-.645 1.332-.43.172-.945.773-.687.988.257.172-.13.473-.559.516-.43.043-.258.516-.258.516-.215.043-.258 0-.816-.258-.56-.258-.43.258-1.247.473-.816.257-.644.386-.773 1.203-.13.86.472 1.29 1.633 3.008.172.258.3.473.387.73.086-.257.129-.6.171-1.288.086-1.16.13-.56.731-1.505.602-.945.86-.472 1.59-.86.73-.386.387-.3.903-1.202.515-.903.988-.258 1.203-1.376.215-1.117.172-.73.516-1.289.343-.559.343-.344.215-1.203-.13-.86.085-2.235.085-2.235.043-.773.645-.559.817.129.172.688.043.473.473 1.074.386.645.129.56-.043 1.72-.13 1.16-.172.988.644 1.804.774.817.301 1.333.602 1.891.559.559.086.86-.3 1.118M8.036 4.158c.859-1.376 1.117-1.935 1.847-1.161.73.773.774 1.203 1.848 2.88 1.075 1.675 1.977 1.89 1.891 2.75-.129.902.043 1.289-1.074 1.761-1.118.43-1.72.172-1.762-.773-.043-.946.473-.645.258-1.59-.258-.946-.387-2.063-.774-2.32-.387-.259-1.16-.259-1.246.6 0 0-.301 1.376-.086 2.236.215.86-.086 2.277-.43 1.847-.387-.43-.902-.515-.816-2.45 0-1.933-.516-2.406.343-3.78M32.06 5.875c1.074-1.676 1.117-2.106 1.847-2.88.731-.773.989-.214 1.848 1.161.86 1.375.344 1.891.387 3.782.086 1.934-.43 1.977-.816 2.45-.387.43-.645-.989-.43-1.848.215-.86-.086-2.235-.086-2.235-.086-.86-.86-.86-1.246-.602-.387.258-.516 1.375-.774 2.32-.258.946.3.645.258 1.59-.043.946-.645 1.204-1.762.774-1.117-.43-.946-.859-1.074-1.762-.172-.902.773-1.117 1.848-2.75m10.056 19.339c-.688-1.031-.903-1.16-.946-2.063-.043-.945.086-1.461-.773-2.45-.86-.988-1.075-1.46-.946-2.75.13-1.29-.043-3.137-.515-3.739 0 0-.172 1.16-.387 1.418-.215.301-.258-1.59-.387-2.062-.172-.473-.387-1.118-.86-1.376-.472-.3-.644-1.074-.644-1.074S38.506 2.395 34.036.461c0 0-1.074-.387-1.934 1.547-.859 1.934-3.652 3.138-4.383 4.126-.73.988-1.117 1.117-1.203 1.117-.13 0-3.052-.73-4.642-.73-1.59 0-4.512.73-4.64.73-.13 0-.474-.129-1.204-1.117s-3.524-2.192-4.384-4.126C10.786.074 9.712.461 9.712.461 5.286 2.395 7.091 11.12 7.091 11.12s-.172.774-.645 1.074c-.472.301-.687.903-.86 1.376-.171.472-.214 2.363-.386 2.062-.215-.3-.387-1.418-.387-1.418-.473.602-.644 2.45-.515 3.74.128 1.288-.086 1.804-.946 2.75-.86.988-.73 1.504-.773 2.45-.043.945-.258 1.073-.946 2.062C.945 26.246 0 28.137 0 28.137s.387.172.73.301c.344.129.602.387.946.516s.387.344.688.515c.3.215 0 .387-.172.774s.258.602.773.86c.516.257.602.472.86 1.03.258.516.3 1.118.86 1.29.558.215.386.559.472 1.118.086.515.387.687 1.074.816.645.129.344.387.387.989.043.6.645.73 1.547.687.903-.043.387.3 1.762 1.59s3.481 3.008 5.544 5.63c2.02 2.621 5.071 7.735 6.446 7.735 1.376 0 4.384-5.114 6.447-7.735 2.02-2.622 4.168-4.298 5.543-5.63 1.376-1.29.86-1.633 1.762-1.59.903.043 1.505-.086 1.548-.687.043-.602-.301-.86.386-.989.645-.13.989-.3 1.075-.816.086-.516-.086-.903.472-1.118.56-.215.602-.774.86-1.29.258-.515.344-.773.86-1.03.515-.258.945-.473.773-.86-.172-.387-.43-.559-.172-.774.3-.214.387-.43.688-.515.343-.13.601-.43.945-.516.344-.129.73-.301.73-.301s-1.03-1.934-1.718-2.922m-13.194 5.114c-.085.386-.258.688-.258.988 0 .688-.43.731-1.117.387-.688-.344-.258.559-.387 1.418-.128.86-1.203 1.676-1.504 2.235-.343.559-.86.043-.902-.559-.044-.601.472-1.762-.215-2.965-.559-1.031-2.149-.645-2.622-.516-.472-.129-2.063-.472-2.621.516-.688 1.203-.172 2.364-.215 2.965-.043.602-.601 1.118-.902.56-.344-.56-1.376-1.376-1.504-2.236-.13-.86.3-1.719-.387-1.418-.688.344-1.118.258-1.118-.387 0-.3-.171-.602-.258-.988-.257-.043-.472-.043-.558.043-.172.215-.387 1.074-.172 2.062.258.99.559 1.161 1.203 1.978.645.816 1.16.558 1.59 1.719.43 1.203.258 1.46 1.032 1.762.773.3.86.386 1.632.3.774-.086.774.043 1.333.13.258.042.43 0 .516 0 .129-.044.215-.044.3 0 .044 0 .087.042.13.085.043-.043.085-.086.128-.086.086-.043.172-.043.3 0 .13 0 .26.043.517 0 .558-.043.558-.172 1.332-.129.774.086.86 0 1.633-.3.774-.302.601-.56 1.031-1.762.43-1.204.99-.903 1.59-1.72.645-.816.946-.988 1.204-1.977.258-.988 0-1.847-.172-2.062-.086-.129-.3-.086-.559-.043"></path></svg></g><path fill="#ffffff" fill-rule="nonzero" d="M0 17.81L0 1.01L6.84 1.01Q9.50 1.01 11.54 2.08Q13.58 3.14 14.71 5.05Q15.84 6.96 15.84 9.41L15.84 9.41Q15.84 11.86 14.71 13.76Q13.58 15.67 11.54 16.74Q9.50 17.81 6.84 17.81L6.84 17.81L0 17.81ZM1.78 16.27L6.74 16.27Q8.95 16.27 10.61 15.40Q12.26 14.52 13.18 12.97Q14.09 11.42 14.09 9.41L14.09 9.41Q14.09 7.39 13.18 5.84Q12.26 4.30 10.61 3.42Q8.95 2.54 6.74 2.54L6.74 2.54L1.78 2.54L1.78 16.27ZM29.28 5.18L30.98 5.18L30.98 17.81L29.35 17.81L29.35 15.31Q28.58 16.58 27.32 17.26Q26.06 17.93 24.48 17.93L24.48 17.93Q22.70 17.93 21.26 17.11Q19.82 16.30 19.01 14.83Q18.19 13.37 18.19 11.50L18.19 11.50Q18.19 9.62 19.01 8.16Q19.82 6.70 21.26 5.89Q22.70 5.09 24.48 5.09L24.48 5.09Q26.02 5.09 27.25 5.72Q28.49 6.36 29.28 7.58L29.28 7.58L29.28 5.18ZM24.62 16.42Q25.94 16.42 27.01 15.80Q28.08 15.19 28.69 14.06Q29.30 12.94 29.30 11.50L29.30 11.50Q29.30 10.06 28.69 8.93Q28.08 7.80 27.01 7.19Q25.94 6.58 24.62 6.58L24.62 6.58Q23.28 6.58 22.21 7.19Q21.14 7.80 20.53 8.93Q19.92 10.06 19.92 11.50L19.92 11.50Q19.92 12.94 20.53 14.06Q21.14 15.19 22.21 15.80Q23.28 16.42 24.62 16.42L24.62 16.42ZM42.17 5.09Q44.54 5.09 45.95 6.47Q47.35 7.85 47.35 10.49L47.35 10.49L47.35 17.81L45.65 17.81L45.65 10.66Q45.65 8.69 44.66 7.66Q43.68 6.62 41.86 6.62L41.86 6.62Q39.82 6.62 38.63 7.84Q37.44 9.05 37.44 11.18L37.44 11.18L37.44 17.81L35.74 17.81L35.74 5.18L37.37 5.18L37.37 7.51Q38.06 6.36 39.30 5.72Q40.54 5.09 42.17 5.09L42.17 5.09ZM51.98 17.81L51.98 5.18L53.69 5.18L53.69 17.81L51.98 17.81ZM52.85 2.42Q52.32 2.42 51.96 2.06Q51.60 1.70 51.60 1.20L51.60 1.20Q51.60 0.72 51.96 0.36Q52.32 0 52.85 0L52.85 0Q53.38 0 53.74 0.35Q54.10 0.70 54.10 1.18L54.10 1.18Q54.10 1.70 53.74 2.06Q53.38 2.42 52.85 2.42L52.85 2.42Z" transform="translate(28.308, 9.096)"></path></svg>